<?xml version="1.0" standalone="no"?>
<!DOCTYPE svg PUBLIC "-//W3C//DTD SVG 20010904//EN"
 "http://www.w3.org/TR/2001/REC-SVG-20010904/DTD/svg10.dtd">
<svg version="1.0" xmlns="http://www.w3.org/2000/svg"
 width="1200.000000pt" height="851.000000pt" viewBox="0 0 1200.000000 851.000000"
 preserveAspectRatio="xMidYMid meet">

<g transform="translate(0.000000,851.000000) scale(0.100000,-0.100000)"
fill="#000000" stroke="none">
<path d="M0 4255 l0 -4255 6000 0 6000 0 0 4255 0 4255 -6000 0 -6000 0 0
-4255z m5882 2072 c31 -18 57 -44 75 -75 l28 -47 3 -1497 2 -1498 150 0 150 0
0 1496 c0 1667 -6 1529 70 1598 60 54 98 58 523 54 l374 -3 49 -30 c37 -23 56
-44 77 -84 l27 -55 0 -1636 0 -1636 -25 -50 c-36 -72 -644 -676 -700 -695 -32
-11 -142 -14 -540 -14 -275 0 -518 4 -540 8 -35 8 -80 48 -368 335 -181 180
-337 344 -348 364 -19 36 -19 79 -19 1688 0 1816 -5 1684 63 1749 61 58 87 61
517 58 l385 -2 47 -28z m4223 6 c50 -27 80 -58 100 -105 23 -55 23 -741 0
-796 -20 -47 -50 -78 -100 -105 -38 -21 -56 -22 -317 -25 l-278 -3 0 -1490 c0
-1322 -2 -1494 -15 -1527 -20 -47 -50 -78 -100 -105 -39 -21 -54 -22 -407 -25
-232 -2 -388 1 -424 7 -71 13 -120 50 -151 111 l-23 44 0 1493 0 1493 -256 0
c-281 0 -322 6 -379 53 -74 60 -75 66 -75 477 0 334 2 368 19 406 23 51 83
101 136 113 23 5 497 8 1135 8 l1095 -2 40 -22z m-6404 -6 c89 -47 56 77 529
-2022 236 -1050 430 -1929 430 -1953 0 -84 -69 -169 -156 -191 -59 -15 -750
-15 -809 0 -58 15 -119 68 -139 122 -9 23 -34 139 -56 257 -23 118 -43 223
-46 233 -5 16 -26 17 -249 17 -223 0 -244 -1 -249 -17 -3 -10 -24 -117 -46
-238 -23 -121 -50 -238 -59 -260 -20 -46 -79 -101 -119 -112 -35 -10 -779 -10
-814 0 -69 19 -138 113 -138 189 0 38 834 3770 862 3858 16 52 54 96 101 119
41 20 57 21 478 21 l436 0 44 -23z"/>
<path d="M5080 4553 l0 -1598 297 -297 298 -298 470 0 470 0 298 298 297 297
0 1598 0 1597 -355 0 -355 0 0 -643 c0 -354 -3 -1063 -7 -1575 l-6 -932 -349
0 -348 0 0 1575 0 1575 -355 0 -355 0 0 -1597z"/>
<path d="M7880 5830 l0 -320 355 0 355 0 2 -1572 3 -1573 355 0 355 0 3 1573
2 1572 350 0 350 0 0 320 0 320 -1065 0 -1065 0 0 -320z"/>
<path d="M2835 6138 c-2 -7 -192 -850 -420 -1873 -229 -1023 -418 -1870 -422
-1882 l-5 -23 340 0 c263 0 341 3 344 13 3 6 31 150 64 320 l58 307 417 0 417
0 51 -267 c28 -148 56 -292 62 -320 l10 -53 355 0 c195 0 354 3 354 8 -1 4
-191 855 -423 1892 l-422 1885 -388 3 c-305 2 -388 0 -392 -10z m526 -1755
c81 -433 146 -789 145 -791 -2 -1 -138 -1 -302 0 l-300 3 141 755 c78 415 145
772 149 794 4 21 10 35 13 32 3 -3 73 -360 154 -793z"/>
<path d="M3181 3953 c-12 -65 -25 -128 -28 -140 -5 -22 -2 -23 51 -23 31 0 56
2 56 4 0 12 -51 270 -54 273 -2 2 -13 -49 -25 -114z"/>
</g>
</svg>
